<svg viewBox="0 0 500 500" width="1000" height="1000" xmlns="http://www.w3.org/2000/svg">
  <defs>
    <filter id="roughPaper2" x="-10%" y="-10%" width="120%" height="120%">
      <feTurbulence type="fractalNoise" baseFrequency="0.04" numOctaves="3" result="noise" />
      <feDisplacementMap in="SourceGraphic" in2="noise" scale="3" xChannelSelector="R" yChannelSelector="G" />
    </filter>
    <linearGradient id="caramelGrad" x1="0" y1="0" x2="1" y2="0">
      <stop offset="0%" stopColor="#A8752E" />
      <stop offset="25%" stopColor="#D5A250" />
      <stop offset="60%" stopColor="#BF8B3B" />
      <stop offset="100%" stopColor="#7E5218" />
    </linearGradient>
    <linearGradient id="lidGradTumbler" x1="0" y1="0" x2="0" y2="1">
      <stop offset="0%" stopColor="#4A453F" />
      <stop offset="100%" stopColor="#25221E" />
    </linearGradient>
  </defs>

  <g transform="rotate(-3 250 250)" filter="url(#roughPaper2)">
    <!-- Right Handle (C-shape) -->
    <path d="M 285 205 C 345 205, 345 325, 280 325" stroke="#4F3512" stroke-width="26" stroke-linecap="round" fill="none" />
    <path d="M 285 205 C 335 205, 335 325, 280 325" stroke="#A8752E" stroke-width="14" stroke-linecap="round" fill="none" />

    <!-- Tumbler Main Body (Golden Caramel Watercolor Cylinder) -->
    <polygon points="190,165 295,165 280,380 205,380" fill="url(#caramelGrad)" stroke="#4A300E" stroke-width="8" stroke-linejoin="round" />

    <!-- Specular highlight streak on left side -->
    <line x1="210" y1="175" x2="218" y2="370" stroke="#FDE8B6" stroke-width="9" stroke-linecap="round" stroke-opacity="0.75" />
    <line x1="225" y1="175" x2="230" y2="368" stroke="#FFFFFF" stroke-width="4" stroke-linecap="round" stroke-opacity="0.6" />

    <!-- Dark Shading on right side -->
    <line x1="282" y1="175" x2="272" y2="370" stroke="#482F0B" stroke-width="8" stroke-linecap="round" stroke-opacity="0.45" />

    <!-- Dark Tumbler Lid Rim -->
    <rect x="180" y="142" width="125" height="26" rx="9" fill="url(#lidGradTumbler)" stroke="#221F1C" stroke-width="7" />
    <line x1="190" y1="148" x2="295" y2="148" stroke="#7A736B" stroke-width="4" stroke-linecap="round" stroke-opacity="0.7" />

    <!-- Sipper Spout Top Flap -->
    <polygon points="192,142 205,125 240,125 242,142" fill="#36322D" stroke="#1D1A17" stroke-width="5" stroke-linejoin="round" />

    <!-- Bottom Rim -->
    <path d="M 205 380 Q 242 390 280 380" stroke="#4A300E" stroke-width="7" fill="none" />
  </g>
</svg>