<svg width="3200px" height="12800px" viewBox="0 0 3200 12800" version="1.1" xmlns="http://www.w3.org/2000/svg">
<g id="Page-1" stroke="none" stroke-width="1" fill="none" fill-rule="evenodd">
<path d="M3200 12749 c-98 -78 -161 -119 -375 -239 -359 -201 -495 -306 -600 -465 -85 -127 -128 -246 -156 -425 -15 -95 -5 -432 16 -550 22 -126 18 -127 -20 -5 -159 517 -393 835 -698 950 -130 49 -209 61 -512 80 -243 16 -372 32 -479 60 -32 9 -61 13 -64 11 -2 -3 16 -67 41 -143 27 -83 64 -231 92 -371 60 -303 95 -424 155 -547 88 -178 195 -295 367 -397 182 -108 452 -187 773 -225 45 -6 -10 -8 -180 -9 -664 -3 -996 -152 -1197 -539 -23 -44 -80 -179 -128 -300 -93 -234 -134 -322 -196 -421 -22 -34 -39 -63 -39 -65 0 -2 78 -4 173 -5 112 -1 230 -9 337 -23 372 -48 524 -49 698 -5 264 66 488 254 677 567 25 42 48 77 50 77 2 0 -13 -37 -32 -82 -19 -46 -70 -170 -113 -276 -66 -162 -83 -196 -107 -210 -148 -86 -246 -148 -281 -177 -58 -50 -93 -129 -99 -226 l-6 -78 -28 59 c-36 78 -107 152 -168 179 -29 12 -81 23 -132 26 -46 4 -115 11 -152 17 -38 5 -70 8 -73 6 -2 -3 2 -22 9 -44 8 -21 24 -85 36 -142 12 -57 31 -123 41 -147 37 -86 113 -149 225 -185 l40 -13 -78 -14 c-90 -15 -159 -47 -203 -95 -40 -44 -55 -70 -88 -153 -15 -38 -40 -94 -56 -123 -19 -35 -25 -54 -17 -57 7 -2 64 -6 126 -9 63 -4 117 -9 120 -11 2 -3 -6 -20 -19 -37 -297 -402 -465 -879 -520 -1478 -16 -170 -13 -616 5 -825 60 -694 193 -1321 555 -2620 320 -1147 403 -1478 474 -1900 49 -290 60 -416 60 -675 0 -229 -5 -296 -37 -453 -14 -74 190 185 330 418 275 456 427 973 474 1614 13 182 7 709 -10 896 -57 601 -142 1097 -346 2009 -218 977 -245 1100 -284 1291 -99 493 -157 876 -181 1205 -14 201 -16 300 -7 300 5 0 40 -30 78 -66 45 -44 70 -62 73 -53 15 51 51 141 71 179 l24 45 12 -35 c28 -78 126 -259 199 -369 87 -128 190 -260 366 -468 333 -391 480 -652 550 -973 26 -116 26 -391 0 -543 -9 -60 -15 -111 -13 -113 5 -5 18 63 38 196 6 41 11 143 11 225 1 265 -45 447 -178 705 -90 175 -190 314 -464 645 -251 303 -361 469 -455 690 -35 82 -38 97 -36 170 2 87 -13 144 -54 207 -14 21 -25 42 -25 47 0 6 30 -4 68 -22 58 -28 78 -32 147 -32 87 0 118 12 246 95 34 22 77 45 95 52 19 7 34 17 34 23 0 5 -17 22 -38 37 -20 14 -73 59 -117 98 -44 40 -101 83 -127 96 -66 33 -147 40 -226 20 -35 -9 -66 -16 -68 -16 -3 0 17 21 43 48 110 106 135 208 94 369 -12 45 -21 92 -21 105 0 29 55 179 178 488 49 124 95 242 101 263 7 21 15 37 17 34 2 -2 -12 -50 -31 -108 -83 -245 -120 -445 -119 -649 0 -125 4 -171 21 -241 58 -228 164 -370 458 -608 203 -165 280 -236 353 -323 36 -43 69 -75 72 -71 4 5 15 39 25 76 27 105 74 223 172 437 173 376 198 461 198 680 0 132 -3 167 -23 235 -64 222 -206 437 -450 681 -64 65 -108 111 -97 103 11 -7 63 -46 115 -85 271 -203 548 -341 750 -373 93 -15 239 -13 324 4 142 29 267 91 520 254 168 109 328 197 411 226 28 10 54 22 58 26 5 4 -38 39 -95 78 -105 72 -154 114 -386 327 -228 210 -356 296 -526 353 -156 51 -352 57 -529 16 -34 -8 -62 -13 -64 -11 -4 4 145 60 287 108 150 52 286 88 330 88 19 1 53 7 75 15 22 8 63 18 92 21 l51 7 -10 -44 c-14 -60 -4 -147 21 -196 11 -23 51 -77 87 -120 37 -43 78 -95 91 -116 22 -35 43 -42 43 -13 0 6 32 61 71 122 96 145 112 184 112 264 0 36 -3 74 -6 86 -7 21 -7 21 67 8 244 -42 536 -182 796 -382 47 -36 160 -128 252 -204 319 -265 494 -384 705 -478 241 -107 328 -125 613 -125 208 1 304 11 430 45 l35 10 -40 -5 c-22 -3 -85 -13 -140 -22 -62 -10 -163 -17 -265 -17 -182 -1 -263 11 -430 66 -260 85 -441 199 -831 525 -408 340 -586 457 -843 554 -65 24 -83 35 -70 40 11 4 64 25 119 47 55 22 115 43 133 47 32 7 41 18 22 30 -5 3 -46 50 -90 104 -43 54 -87 107 -97 116 -17 17 -7 18 222 12 551 -13 1043 -94 2325 -384 1180 -266 1697 -363 2236 -417 532 -54 1096 -47 1499 20 560 92 1059 301 1472 618 140 106 159 123 151 131 -4 5 -51 0 -105 -10 -130 -23 -442 -31 -614 -16 -322 28 -675 93 -1144 210 -320 80 -471 121 -1330 361 -1189 332 -1897 475 -2580 521 -243 16 -687 6 -884 -20 -368 -50 -687 -146 -974 -293 -102 -52 -352 -213 -376 -242 -7 -9 -17 -16 -22 -16 -5 0 -9 47 -9 105 0 58 -2 105 -4 105 -2 0 -26 -11 -53 -24 -26 -14 -86 -38 -132 -55 -108 -39 -161 -71 -205 -123 -37 -43 -76 -131 -76 -173 0 -37 -17 -39 -24 -2 -3 17 -19 59 -35 92 -39 83 -104 140 -190 164 -146 43 -254 71 -257 69 -6 -7 18 -306 27 -343 23 -88 77 -154 167 -203 l53 -29 -93 -5 c-155 -8 -214 -45 -304 -191 -32 -51 -70 -108 -85 -127 -16 -19 -25 -37 -21 -40 4 -4 34 -12 67 -18 33 -7 86 -20 119 -30 l59 -18 -155 -51 c-85 -29 -280 -104 -433 -168 -153 -63 -280 -113 -282 -111 -2 2 9 11 24 21 68 44 236 191 328 286 216 226 306 423 308 674 0 140 -14 224 -83 485 -58 218 -78 323 -87 443 -3 48 -9 87 -13 87 -4 0 -35 -23 -70 -51z m1256 -1545 c0 -1 -15 1 -32 3 -29 5 -38 13 -62 67 -3 4 18 -9 45 -30 28 -22 50 -40 49 -40z m-421 26 c-9 -16 -23 -30 -32 -30 -13 0 -10 7 12 30 16 17 30 30 32 30 2 0 -3 -13 -12 -30z m-1276 -474 c-10 -9 -129 -66 -129 -61 0 8 104 65 119 65 8 0 12 -2 10 -4z m-655 -305 c3 -5 -16 -6 -42 -4 -69 7 -74 11 -15 12 28 1 54 -3 57 -8z m231 -121 c10 -11 16 -20 13 -20 -3 0 -13 9 -23 20 -10 11 -16 20 -13 20 3 0 13 -9 23 -20z m-154 -37 c-12 -20 -14 -14 -5 12 4 9 9 14 11 11 3 -2 0 -13 -6 -23z m-142 -352 c-6 -18 -13 -30 -15 -28 -2 2 1 18 7 36 6 18 13 30 15 28 2 -2 -1 -18 -7 -36z" fill="#000000" stroke="none"/>
<path d="M2741 5324 c0 -11 3 -14 6 -6 3 7 2 16 -1 19 -3 4 -6 -2 -5 -13z" fill="#000000" stroke="none"/>
</g>
</svg>
