<svg viewBox="0 0 500 500" width="1000" height="1000" xmlns="http://www.w3.org/2000/svg">
  <defs>
    <filter id="roughPaper3" x="-10%" y="-10%" width="120%" height="120%">
      <feTurbulence type="fractalNoise" baseFrequency="0.04" numOctaves="3" result="noise" />
      <feDisplacementMap in="SourceGraphic" in2="noise" scale="3" xChannelSelector="R" yChannelSelector="G" />
    </filter>
    <linearGradient id="metalStrawGrad" x1="0" y1="0" x2="1" y2="0">
      <stop offset="0%" stopColor="#4A4E54" />
      <stop offset="30%" stopColor="#CBD0D6" />
      <stop offset="50%" stopColor="#FFFFFF" />
      <stop offset="75%" stopColor="#828891" />
      <stop offset="100%" stopColor="#35383D" />
    </linearGradient>
  </defs>

  <g filter="url(#roughPaper3)">
    <!-- 1. STRAIGHT STRAW (Back: Bottom-Left to Top-Right) -->
    <g transform="rotate(-36 250 250)">
      <rect x="232" y="60" width="36" height="380" rx="18" fill="url(#metalStrawGrad)" stroke="#23262A" stroke-width="8" />
      <!-- Specular Highlight Line -->
      <line x1="244" y1="70" x2="244" y2="430" stroke="#FFFFFF" stroke-width="6" stroke-linecap="round" stroke-opacity="0.9" />
    </g>

    <!-- 2. BENT STRAW (Front: Angled tube with 45-deg elbow bend at top) -->
    <g>
      <!-- Lower Tube -->
      <path d="M 185 210 L 310 405" stroke="#23262A" stroke-width="44" stroke-linecap="round" />
      <path d="M 185 210 L 310 405" stroke="url(#metalStrawGrad)" stroke-width="34" stroke-linecap="round" />
      <path d="M 188 214 L 306 400" stroke="#FFFFFF" stroke-width="7" stroke-linecap="round" stroke-opacity="0.95" />

      <!-- Elbow Bend to Left -->
      <path d="M 130 195 L 185 210" stroke="#23262A" stroke-width="44" stroke-linecap="round" />
      <path d="M 130 195 L 185 210" stroke="url(#metalStrawGrad)" stroke-width="34" stroke-linecap="round" />
      <path d="M 134 196 L 185 210" stroke="#FFFFFF" stroke-width="6" stroke-linecap="round" stroke-opacity="0.95" />
    </g>

    <!-- 3. GOLDEN SPARKLES ✦ (Matching sedotan besi.png) -->
    <!-- Top Sparkle -->
    <g transform="translate(340, 115) scale(1.3)">
      <path d="M 0,-30 Q 2,-2 30,0 Q 2,2 0,30 Q -2,2 -30,0 Q -2,-2 0,-30 Z" fill="#FDD03B" stroke="#D19803" stroke-width="2" />
      <circle cx="0" cy="0" r="5" fill="#FFFFFF" />
    </g>

    <!-- Middle-Right Sparkle -->
    <g transform="translate(380, 175) scale(0.9)">
      <path d="M 0,-30 Q 2,-2 30,0 Q 2,2 0,30 Q -2,2 -30,0 Q -2,-2 0,-30 Z" fill="#FDD03B" stroke="#D19803" stroke-width="2" />
      <circle cx="0" cy="0" r="5" fill="#FFFFFF" />
    </g>

    <!-- Bottom-Left Sparkle -->
    <g transform="translate(135, 360) scale(1.1)">
      <path d="M 0,-30 Q 2,-2 30,0 Q 2,2 0,30 Q -2,2 -30,0 Q -2,-2 0,-30 Z" fill="#FDD03B" stroke="#D19803" stroke-width="2" />
      <circle cx="0" cy="0" r="5" fill="#FFFFFF" />
    </g>
  </g>
</svg>