<svg viewBox="0 0 500 500" width="1000" height="1000" xmlns="http://www.w3.org/2000/svg">
  <defs>
    <filter id="roughPaper5" x="-10%" y="-10%" width="120%" height="120%">
      <feTurbulence type="fractalNoise" baseFrequency="0.04" numOctaves="3" result="noise" />
      <feDisplacementMap in="SourceGraphic" in2="noise" scale="3" xChannelSelector="R" yChannelSelector="G" />
    </filter>
    <linearGradient id="bodyMetalGrad" x1="0" y1="0" x2="1" y2="0">
      <stop offset="0%" stopColor="#6C7379" />
      <stop offset="25%" stopColor="#C4CBD0" />
      <stop offset="50%" stopColor="#E2E7EA" />
      <stop offset="75%" stopColor="#98A0A6" />
      <stop offset="100%" stopColor="#51575D" />
    </linearGradient>
  </defs>

  <g filter="url(#roughPaper5)">
    <!-- Tapered Galvanized Bucket Body -->
    <polygon points="60,40 440,40 390,460 110,460"
             fill="url(#bodyMetalGrad)" stroke="#32373C" stroke-width="11" stroke-linejoin="round" />

    <!-- Top Lip rim -->
    <rect x="50" y="32" width="400" height="20" rx="8" fill="#757D83" stroke="#32373C" stroke-width="6" />

    <!-- Vertical Corrugated Zinc Ribs (Matching tongsampah bawah.png) -->
    <!-- Rib 1 -->
    <line x1="135" y1="52" x2="155" y2="445" stroke="#3B4146" stroke-width="8" stroke-opacity="0.6" />
    <line x1="128" y1="52" x2="148" y2="445" stroke="#FFFFFF" stroke-width="4.5" stroke-opacity="0.75" />

    <!-- Rib 2 -->
    <line x1="205" y1="52" x2="215" y2="445" stroke="#3B4146" stroke-width="8" stroke-opacity="0.6" />
    <line x1="198" y1="52" x2="208" y2="445" stroke="#FFFFFF" stroke-width="4.5" stroke-opacity="0.75" />

    <!-- Rib 3 (Center) -->
    <line x1="285" y1="52" x2="278" y2="445" stroke="#3B4146" stroke-width="8" stroke-opacity="0.6" />
    <line x1="278" y1="52" x2="271" y2="445" stroke="#FFFFFF" stroke-width="4.5" stroke-opacity="0.75" />

    <!-- Rib 4 -->
    <line x1="365" y1="52" x2="345" y2="445" stroke="#3B4146" stroke-width="8" stroke-opacity="0.6" />
    <line x1="358" y1="52" x2="338" y2="445" stroke="#FFFFFF" stroke-width="4.5" stroke-opacity="0.75" />

    <!-- Bottom Rim Base -->
    <path d="M 110 460 Q 250 480 390 460" stroke="#32373C" stroke-width="9" fill="none" />
  </g>
</svg>