<svg viewBox="0 0 500 500" width="1000" height="1000" xmlns="http://www.w3.org/2000/svg">
  <defs>
    <!-- Filter for realistic watercolor rough edges and brush grain -->
    <filter id="roughPaper" x="-10%" y="-10%" width="120%" height="120%">
      <feTurbulence type="fractalNoise" baseFrequency="0.04" numOctaves="3" result="noise" />
      <feDisplacementMap in="SourceGraphic" in2="noise" scale="3" xChannelSelector="R" yChannelSelector="G" />
    </filter>
    <linearGradient id="orangeGrad" x1="0" y1="0" x2="1" y2="1">
      <stop offset="0%" stopColor="#EB7234" />
      <stop offset="40%" stopColor="#DF6024" />
      <stop offset="80%" stopColor="#CD4A15" />
      <stop offset="100%" stopColor="#B33B0D" />
    </linearGradient>
    <linearGradient id="khakiGrad" x1="0" y1="0" x2="1" y2="1">
      <stop offset="0%" stopColor="#DEBE58" />
      <stop offset="50%" stopColor="#CAA943" />
      <stop offset="100%" stopColor="#A7872C" />
    </linearGradient>
    <linearGradient id="greenLogoGrad" x1="0" y1="0" x2="1" y2="1">
      <stop offset="0%" stopColor="#559132" />
      <stop offset="100%" stopColor="#316317" />
    </linearGradient>
  </defs>

  <!-- BACK TOTEBAG (Orange with Cute Smile) -->
  <g transform="rotate(-6 220 250)" filter="url(#roughPaper)">
    <!-- Handles -->
    <path d="M 175 160 C 165 95, 275 95, 265 160" stroke="#B33B0D" stroke-width="26" stroke-linecap="round" fill="none" />
    <path d="M 175 160 C 165 95, 275 95, 265 160" stroke="#E2652B" stroke-width="16" stroke-linecap="round" fill="none" />

    <!-- Bag Body -->
    <rect x="140" y="150" width="165" height="180" rx="28" fill="url(#orangeGrad)" stroke="#872906" stroke-width="8" stroke-linejoin="round" />

    <!-- Grid / Canvas texture pattern -->
    <g stroke="#FED6B3" stroke-width="2.5" stroke-opacity="0.35" stroke-dasharray="4 6">
      <line x1="160" y1="180" x2="285" y2="180" />
      <line x1="160" y1="210" x2="285" y2="210" />
      <line x1="160" y1="240" x2="285" y2="240" />
      <line x1="160" y1="270" x2="285" y2="270" />
      <line x1="160" y1="300" x2="285" y2="300" />
      <line x1="180" y1="165" x2="180" y2="315" />
      <line x1="210" y1="165" x2="210" y2="315" />
      <line x1="240" y1="165" x2="240" y2="315" />
      <line x1="270" y1="165" x2="270" y2="315" />
    </g>

    <!-- Adorable Hand-painted Face (Matching totebag.png) -->
    <!-- Eyes -->
    <circle cx="192" cy="225" r="7.5" fill="#3D1303" />
    <circle cx="252" cy="225" r="7.5" fill="#3D1303" />
    <!-- Smile -->
    <path d="M 200 248 Q 222 272 244 248" stroke="#3D1303" stroke-width="7.5" stroke-linecap="round" fill="none" />
  </g>

  <!-- FRONT FOLDED TOTEBAG (Khaki Yellow with Green Logo) -->
  <g transform="rotate(14 300 290)" filter="url(#roughPaper)">
    <!-- Folded Bag Silhouette -->
    <polygon points="230,195 365,210 390,360 250,370" fill="url(#khakiGrad)" stroke="#6B5414" stroke-width="8" stroke-linejoin="round" />

    <!-- Bag Top Opening Fold -->
    <polygon points="230,195 365,210 335,245 205,230" fill="#EAD176" stroke="#6B5414" stroke-width="6" stroke-linejoin="round" />

    <!-- Green U / Chevron Logo Emblem (Matching totebag.png) -->
    <path d="M 270,250 L 278,310 L 330,318 L 340,260 L 318,260 L 310,292 L 295,288 L 290,252 Z"
          fill="url(#greenLogoGrad)" stroke="#1F470F" stroke-width="5" stroke-linejoin="round" />

    <!-- Canvas grid texture -->
    <g stroke="#614B10" stroke-width="2" stroke-opacity="0.3" stroke-dasharray="3 5">
      <line x1="240" y1="240" x2="375" y2="255" />
      <line x1="245" y1="280" x2="380" y2="295" />
      <line x1="250" y1="320" x2="385" y2="335" />
      <line x1="270" y1="220" x2="280" y2="360" />
      <line x1="310" y1="225" x2="320" y2="365" />
      <line x1="350" y1="230" x2="360" y2="360" />
    </g>
  </g>
</svg>